<svg xmlns="http://www.w3.org/2000/svg" viewBox="0 0 500 500"><title>Artboard 1</title><path d="M248.513,407.591c74.758-12.671,226.181,78.785,249.139,91.552,1.919,1.067,2.565.4,1.443-1.485-8.858-14.906-61.082-116.937-82.309-170.792-5.862-14.872-29.874-15.524-38.371-4.5-6.751,8.761-11.427,13.055-22.961,25.109-.427.446-.135,1.428.657,2.2l2.081,2.022a2.332,2.332,0,0,0,1.844.788l39.344-3.813c.85-.171,2.16.773,2.579,1.858l33.133,85.726.036.093-.094-.033-86.65-30.633c-1.1-.388-2.079-1.67-1.933-2.524l2.671-39.438a2.331,2.331,0,0,0-.842-1.821l-2.081-2.022c-.792-.768-1.782-1.032-2.215-.592-34.357,34.838-73.921,44.534-97.394,45.105a.762.762,0,0,0-.547.212h0C245.186,405.483,247.122,407.827,248.513,407.591Z" style="fill:#3fa9f5"/><path d="M493.018,190.57A246.187,246.187,0,0,0,299.958,5.15C119.808-29.47-33.532,128.43,6.378,307.5A246.4,246.4,0,0,0,143.7,477.49q5.79,2.685,11.75,5.04a25.738,25.738,0,0,0,4.05.32,26,26,0,0,0,26-26V347.68a116.76,116.76,0,1,0-52.24-95.64q.045,3.06.24,6.08v150.9c-48.39-35.64-80.18-92.84-80.59-157.46-.68-107.78,85.44-196.2,193.29-198.27,111-2.13,202.43,88.91,200.88,199.92a196.9,196.9,0,0,1-6.46,47.44,41.69,41.69,0,0,0,11.3,40.52l16.39,15.92a5.338,5.338,0,0,0,8.55-1.56C499.448,306.89,506.848,249.84,493.018,190.57Zm-243.96-4.71a64.5,64.5,0,1,1-63.55,65.43A64.493,64.493,0,0,1,249.058,185.86Z" style="fill:#3fa9f5"/></svg>