<svg xmlns="http://www.w3.org/2000/svg" viewBox="0 0 453.998 229.679"><title>Artboard 1</title><path d="M295.969,32.827H269.807q-1.726,0-1.726,1.5,0,3.618,3.924,6.819a13.1,13.1,0,0,0,8.434,3.2,19.814,19.814,0,0,0,5.928-1.029,19.326,19.326,0,0,0,5.372-2.533,5.873,5.873,0,0,1,3.005-1.336,3.787,3.787,0,0,1,2.839,1.781,5.918,5.918,0,0,1,1.392,3.674q0,4.008-5.01,7.737a33.17,33.17,0,0,1-20.429,6.624q-11.69,0-19.593-6.791a27.8,27.8,0,0,1-6.346-8.071,28.228,28.228,0,0,1-3.284-13.248,27.051,27.051,0,0,1,5.678-16.811,29.833,29.833,0,0,1,12.468-9.629,31.335,31.335,0,0,1,12.3-2.394,27.613,27.613,0,0,1,17.98,6.012,24.077,24.077,0,0,1,6.011,7.125,18.65,18.65,0,0,1,2.615,9.129,10.691,10.691,0,0,1-1.5,5.928A4.5,4.5,0,0,1,295.969,32.827ZM271.254,22.418h5.622q3.561,0,3.563-3.284a6.992,6.992,0,0,0-1.726-4.9,5.82,5.82,0,0,0-4.509-1.892,5.723,5.723,0,0,0-4.9,2.449,7.773,7.773,0,0,0-1.67,4.62,2.9,2.9,0,0,0,.807,2.338A4.492,4.492,0,0,0,271.254,22.418Z" style="fill:#3fa9f5"/><path d="M336.771,2.267q9.685,0,16.421,4.9a14.49,14.49,0,0,1,4.982,5.984,24.5,24.5,0,0,1,1.419,9.268l-.111,8.294q0,8.628,1.224,11.188a3.806,3.806,0,0,0,1.169,1.559,7.593,7.593,0,0,0,2.338.612,2.038,2.038,0,0,1,1.781,2.338,9.447,9.447,0,0,1-2.142,5.566,17.792,17.792,0,0,1-5.539,4.843,17.031,17.031,0,0,1-8.739,2.449,11.478,11.478,0,0,1-9.241-4.007,3.111,3.111,0,0,0-2.171-1.448,5.529,5.529,0,0,0-2.95,1.392,20.9,20.9,0,0,1-12.636,4.063q-7.293,0-11.8-3.117a15.243,15.243,0,0,1-6.4-12.3,13.774,13.774,0,0,1,4.676-10.242q7.291-7.014,21.82-7.069,3.228,0,4.064-.64t.835-2.978q0-5.9-1.225-8.545a4.143,4.143,0,0,0-4.008-2.644,4.763,4.763,0,0,0-2.977,1,18.68,18.68,0,0,0-3.257,3.674q-4.956,7.07-10.353,7.069a6.254,6.254,0,0,1-4.454-1.614,5.524,5.524,0,0,1-1.725-4.23,8.544,8.544,0,0,1,2.142-5.344,18.973,18.973,0,0,1,5.818-4.676A44.318,44.318,0,0,1,336.771,2.267Zm-3.73,32.23a5.562,5.562,0,0,0-4.257,2,6.893,6.893,0,0,0-1.81,4.787,6.816,6.816,0,0,0,1.28,4.314,4.092,4.092,0,0,0,3.4,1.642q4.452,0,4.453-7.515a8.915,8.915,0,0,0-.64-4.119A2.708,2.708,0,0,0,333.041,34.5Z" style="fill:#3fa9f5"/><path d="M401.34,2.323a31.2,31.2,0,0,1,17.479,4.954Q426,12.01,426,19.022a10.061,10.061,0,0,1-3.34,7.849,10.772,10.772,0,0,1-7.514,2.839,7.938,7.938,0,0,1-6.958-3.34,26.764,26.764,0,0,1-2.115-5.4q-1.5-4.675-5.734-4.675a6.307,6.307,0,0,0-5.148,2.672,10.335,10.335,0,0,0-2.088,6.568,16.962,16.962,0,0,0,4.787,11.856,12.83,12.83,0,0,0,9.8,4.175,19.6,19.6,0,0,0,4.676-.473,28.582,28.582,0,0,0,4.954-1.92,3.794,3.794,0,0,1,1.725-.39,4.236,4.236,0,0,1,3.34,1.781,6.423,6.423,0,0,1,1.447,4.175A8.906,8.906,0,0,1,421.769,50a19.21,19.21,0,0,1-5.4,4.815,31.958,31.958,0,0,1-17.088,4.453,29.642,29.642,0,0,1-19.539-6.679,26.618,26.618,0,0,1-10.353-21.542,26.224,26.224,0,0,1,9.63-20.819Q388.2,2.324,401.34,2.323Z" style="fill:#3fa9f5"/><path d="M278.992,87.267a30.745,30.745,0,0,1,17.868,5.288,28.323,28.323,0,0,1,8.849,9.853,27.357,27.357,0,0,1,3.451,13.248q0,12.079-11.076,20.54a38.842,38.842,0,0,1-24.214,8.071q-13.305,0-21.542-7.57-8.014-7.347-8.015-19.148a26.941,26.941,0,0,1,9.8-21.487Q264.351,87.268,278.992,87.267Zm-4.454,12.859a4.807,4.807,0,0,0-3.924,1.809,7.383,7.383,0,0,0-1.475,4.815,45.549,45.549,0,0,0,1.252,9.1,68.8,68.8,0,0,0,2.978,10.214q1.725,4.566,5.623,4.565,4.951,0,4.954-6.29a52.283,52.283,0,0,0-1.253-10.632,43.809,43.809,0,0,0-3.034-9.686Q277.823,100.237,274.538,100.126Z" style="fill:#3fa9f5"/><path d="M344.9,87.323a31.2,31.2,0,0,1,17.478,4.954q7.18,4.733,7.181,11.745a10.061,10.061,0,0,1-3.34,7.849,10.774,10.774,0,0,1-7.515,2.839,7.939,7.939,0,0,1-6.958-3.34,26.891,26.891,0,0,1-2.115-5.4q-1.5-4.675-5.733-4.675a6.311,6.311,0,0,0-5.149,2.672,10.341,10.341,0,0,0-2.087,6.568,16.957,16.957,0,0,0,4.787,11.856,12.828,12.828,0,0,0,9.8,4.175,19.586,19.586,0,0,0,4.676-.473,28.551,28.551,0,0,0,4.954-1.92,3.8,3.8,0,0,1,1.726-.39,4.236,4.236,0,0,1,3.34,1.781,6.423,6.423,0,0,1,1.447,4.175,8.906,8.906,0,0,1-2.059,5.26,19.209,19.209,0,0,1-5.4,4.815,31.95,31.95,0,0,1-17.089,4.453,29.642,29.642,0,0,1-19.538-6.679,26.618,26.618,0,0,1-10.353-21.542,26.224,26.224,0,0,1,9.63-20.819Q331.761,87.324,344.9,87.323Z" style="fill:#3fa9f5"/><path d="M404.681,69.511l-.5,17.422q-.056,2.617-.056,7.682,0,5.624.167,6.624.389,2.283,2.338,2.282,1.669,0,5.121-2.143t3.451-3.2a5.123,5.123,0,0,0-1.224-2.226,3.727,3.727,0,0,1-.891-2.227q0-6.011,14.807-6.011a37.955,37.955,0,0,1,12.135,1.558,6.244,6.244,0,0,1,2.95,2.115,5.165,5.165,0,0,1,1.169,3.229,3.546,3.546,0,0,1-2.394,3.507,22.545,22.545,0,0,1-3.228.723,18.61,18.61,0,0,0-6.346,3.034q-3.9,2.589-3.9,3.757,0,.781,4.7,7.32t8.766,11.384a40.269,40.269,0,0,0,4.091,4.453,24.138,24.138,0,0,0,4.092,2.727q4.008,2.172,4.008,4.954a5.246,5.246,0,0,1-2.534,4.62,12.465,12.465,0,0,1-6.929,1.67H426.446a6.439,6.439,0,0,1-5.288-2.5L411.917,128.4q-3.673-4.675-4.481-5.566t-1.363-.891q-.669,0-.891,1a20.879,20.879,0,0,0-.223,3.785,8.83,8.83,0,0,0,.557,3.646,9.372,9.372,0,0,0,2.56,2.756,4.174,4.174,0,0,1,1.448,3.451q0,3.9-4.119,5.622t-13.582,1.725q-11.135,0-14.473-.946a6.328,6.328,0,0,1-3.229-2.254,5.722,5.722,0,0,1-1.336-3.591,4.43,4.43,0,0,1,2.338-3.673,12.6,12.6,0,0,0,2.561-1.949,5.171,5.171,0,0,0,.891-2.115q1.28-7.793,1.224-24.047V93.168q0-6.234-.64-7.96t-3.145-2.06q-4.565-.612-4.564-3.785a4.941,4.941,0,0,1,2-3.813,22.5,22.5,0,0,1,6.569-3.368q14.582-5.4,21.6-5.4Q404.793,66.783,404.681,69.511Z" style="fill:#3fa9f5"/><path d="M275.039,175.5v30.17q0,9.685,6.4,9.685a6.174,6.174,0,0,0,3.173-.919,5.147,5.147,0,0,0,2.17-2.254q1.224-2.672,1.225-11.912A82.681,82.681,0,0,0,287.4,187.8a4.1,4.1,0,0,0-.78-2.032,7.87,7.87,0,0,0-2.115-1.475q-3.173-1.671-3.173-4.231,0-3.45,5.455-4.787a84.918,84.918,0,0,1,20.429-2.56q5.622,0,5.621,5.956,0,.613-.054,2.5-.115,2.672-.168,6.512v24.548q0,1.893,3.228,3.451a4.21,4.21,0,0,1,2.729,3.9q0,5.01-11.858,7.737a59.54,59.54,0,0,1-13.469,1.614,7.5,7.5,0,0,1-3.647-.612,2.966,2.966,0,0,1-1.141-2.394q-.279-3.45-2.115-3.451a2.506,2.506,0,0,0-1.224.306q-.559.307-3.4,2.255a21.02,21.02,0,0,1-12.079,3.841q-10.687,0-15.085-6.179-3.731-5.177-3.729-17.423,0-4.563.055-7.793v-2.56a21.136,21.136,0,0,0-.863-7.041,6.769,6.769,0,0,0-3.145-3.536,10.464,10.464,0,0,1-2.755-1.781,2.691,2.691,0,0,1-.584-1.837q0-4.229,6.4-5.622a101.581,101.581,0,0,1,21.82-2.393Q275.039,172.713,275.039,175.5Z" style="fill:#3fa9f5"/><path d="M352.746,176.164v32.341a16.623,16.623,0,0,0,.7,5.622,7.521,7.521,0,0,0,2.811,3.284,9.517,9.517,0,0,1,2.31,2.088,3.833,3.833,0,0,1,.585,2.2q0,7.18-18.2,7.181a61.585,61.585,0,0,1-15.531-1.559,6.314,6.314,0,0,1-3.145-1.948,4.726,4.726,0,0,1-1.2-3.173,3.888,3.888,0,0,1,.612-2.338,16.792,16.792,0,0,1,3.117-2.672,7.126,7.126,0,0,0,2.449-4.175,38.24,38.24,0,0,0,.724-8.627q0-1.838-.251-6.875t-.361-5.873q-.334-2.282-3.118-3.506-3.452-1.5-3.451-4.454,0-3.505,4.509-5.232a102.481,102.481,0,0,1,13.359-4.063,52.059,52.059,0,0,1,11.022-1.67Q352.745,172.713,352.746,176.164Zm-11.021-24.381a14.17,14.17,0,0,1,7.682,1.81,5.535,5.535,0,0,1,2.838,4.87q0,4.287-4.286,6.791-6.792,3.953-16.421,3.952a11.707,11.707,0,0,1-6.457-1.559,6.236,6.236,0,0,1-3.228-5.566q0-4.788,6.847-7.515A35.2,35.2,0,0,1,341.725,151.783Z" style="fill:#3fa9f5"/><path d="M394.216,183.623v17.868q0,11.856.362,13.8a4.2,4.2,0,0,0,2.755,3.006,8.27,8.27,0,0,1,2.755,1.669,3.237,3.237,0,0,1,.7,2.227,4.97,4.97,0,0,1-1.307,3.34,7,7,0,0,1-3.48,2.115q-4.007,1.224-13.526,1.225-10.743,0-15.085-1.615a7.492,7.492,0,0,1-3.284-2.254,4.924,4.924,0,0,1-1.28-3.2,2.847,2.847,0,0,1,.7-2.059,10.212,10.212,0,0,1,3.033-1.726q2.171-.946,2.672-5.177a180.362,180.362,0,0,0,.891-20.595q0-13.581-.78-17.479a8.344,8.344,0,0,0-3.9-5.789,10.167,10.167,0,0,1-3.2-2.533,4.857,4.857,0,0,1-.863-2.922,5.924,5.924,0,0,1,2.617-4.76,26.554,26.554,0,0,1,8.349-3.757,85.066,85.066,0,0,1,9.964-2.226,59.255,59.255,0,0,1,8.906-1.058q4.4,0,4.4,5.455,0,1.784-.557,8.183Q394.328,175.331,394.216,183.623Z" style="fill:#3fa9f5"/><path d="M435.853,183.623v17.868q0,11.856.362,13.8a4.192,4.192,0,0,0,2.755,3.006,8.27,8.27,0,0,1,2.755,1.669,3.237,3.237,0,0,1,.7,2.227,4.97,4.97,0,0,1-1.307,3.34,7,7,0,0,1-3.48,2.115q-4.008,1.224-13.526,1.225-10.743,0-15.085-1.615a7.492,7.492,0,0,1-3.284-2.254,4.926,4.926,0,0,1-1.281-3.2,2.847,2.847,0,0,1,.7-2.059,10.2,10.2,0,0,1,3.033-1.726q2.171-.946,2.672-5.177a180.641,180.641,0,0,0,.89-20.595q0-13.581-.779-17.479a8.344,8.344,0,0,0-3.9-5.789,10.185,10.185,0,0,1-3.2-2.533,4.863,4.863,0,0,1-.862-2.922,5.925,5.925,0,0,1,2.616-4.76,26.562,26.562,0,0,1,8.35-3.757,85.019,85.019,0,0,1,9.964-2.226,59.255,59.255,0,0,1,8.906-1.058q4.4,0,4.4,5.455,0,1.784-.556,8.183Q435.963,175.331,435.853,183.623Z" style="fill:#3fa9f5"/><path d="M113.8,187.252c34.239-5.8,103.591,36.083,114.1,41.93.879.489,1.175.183.661-.68-4.057-6.827-27.975-53.557-37.7-78.222-2.685-6.812-13.682-7.11-17.574-2.061-3.092,4.012-5.233,5.979-10.516,11.5-.195.2-.062.654.3,1.007l.953.926a1.067,1.067,0,0,0,.845.361l18.019-1.746a1.315,1.315,0,0,1,1.181.851l15.175,39.259.017.043-.043-.015-39.686-14.03a1.313,1.313,0,0,1-.885-1.156l1.223-18.062a1.069,1.069,0,0,0-.386-.835l-.953-.925c-.362-.352-.816-.473-1.015-.272-15.734,15.956-33.855,20.4-44.6,20.656a.354.354,0,0,0-.251.1h0C112.276,186.286,113.162,187.36,113.8,187.252Z" style="fill:#3fa9f5"/><path d="M225.8,87.857a112.752,112.752,0,0,0-88.42-84.922C54.873-12.921-15.356,59.4,2.923,141.41a112.849,112.849,0,0,0,62.892,77.855q2.652,1.23,5.381,2.308a11.767,11.767,0,0,0,1.855.147,11.907,11.907,0,0,0,11.908-11.908v-50a53.478,53.478,0,1,0-23.925-43.8q.02,1.4.109,2.784v69.112A90.174,90.174,0,0,1,112.76,24.983c50.837-.976,92.712,40.72,92,91.563a90.163,90.163,0,0,1-2.959,21.727,19.092,19.092,0,0,0,5.176,18.558l7.506,7.291a2.446,2.446,0,0,0,3.916-.714A115.592,115.592,0,0,0,225.8,87.857ZM114.065,85.478a29.541,29.541,0,1,1-29.106,29.97v-.03a29.513,29.513,0,0,1,29.1-29.94Z" style="fill:#3fa9f5"/></svg>